<?xml version="1.0" encoding="UTF-8"?>
<svg id="svg8" width="270.56mm" height="98.224mm" version="1.1" viewBox="0 0 270.56 98.224" xmlns="http://www.w3.org/2000/svg">
 <path d="m1.5312 97.538c-1.7632-0.7687-1.971-2.934-0.79169-8.2522 0.70262-3.1686 1.9562-5.5016 2.7949-6.4463 0.79495-0.89532 1.9057-1.4501 3.6806-1.4563 2.8849-0.0101 4.5809 1.197 4.1961 3.9129l-0.18874 1.3321-3.0114 0.01218 0.20259-1.1019c0.23293-1.2669-0.2106-1.7809-1.2187-1.7724-0.79463 7e-3 -1.6786 0.82945-2.1336 1.717-0.40068 0.78167-2.075 7.2622-2.075 8.3422 0 0.97221 0.59508 2.0116 1.5303 2.0116 2.0648-0.08115 2.1646-2.0814 2.6053-3.5792l2.9224-0.03429c-0.81773 4.8712-4.1785 7.0488-8.5132 5.3145zm10.166-0.40665c-0.86655-0.86655-0.55004-1.4251-0.09617-3.9986 0.49814-2.8246 1.2032-5.1799 1.9957-6.1412 1.7278-2.0962 5.9728-2.2464 6.6816-0.06832 0.49997 1.5365-0.52629 7.8684-1.69 9.5065-0.74789 1.0528-2.3418 1.7687-4.3513 1.7687-1.5995 0-1.8394-0.36658-2.5397-1.067zm4.481-1.6979c0.23642-0.26125 0.79212-2.0414 1.1828-3.8845 0.75665-3.5694 0.50139-4.2275-0.6662-4.2275-1.4077 0-1.6729 0.50516-2.6084 4.9679-0.45385 2.165-0.50405 2.7984-0.24641 3.1088 0.78464 0.9056 1.909 0.75644 2.3382 0.03526zm27.289 2.2844c-1.0987-0.40164-1.5875-1.2137-1.5875-2.6374l0.1302-1.2167 2.7781-3.5e-4c-0.22442 1.078-0.11867 2.2384 0.82902 2.3417 0.65858 0.0638 1.0999-0.34112 1.4371-0.85579 0.56767-0.86638 0.01642-1.5476-1.8261-2.9692-1.6811-1.297-2.0446-2.037-1.8565-3.7059 0.24386-2.1636 2.249-3.4228 5.0456-3.1909 2.0238 0.16783 2.7229 0.66715 2.7229 2.4272l0.0082 1.4222-2.6575-0.0088 3e-3 -0.7139c0.0048-1.1563-1.5096-1.6225-2.168-0.5744-0.51636 0.82198-0.27473 1.183 0.77117 2.1379 0.68487 0.62534 1.5882 1.2056 1.9831 1.5591 0.99247 0.88833 1.1785 2.1273 0.53525 3.5653-0.59981 1.3409-1.1721 2.1197-2.4174 2.5379-0.92173 0.30956-3.0218 0.1412-3.7308-0.118zm14.811 0.06123c-1.2543-0.46032-1.5506-1.8884-1.0131-4.8821 0.81031-4.5132 1.9999-6.7209 3.9071-7.2506 2.2724-0.63115 4.5946-0.0676 5.0937 1.2361 0.3346 0.87411 0.15046 2.7643-0.57192 5.8705-0.94582 4.067-2.1943 5.3409-5.1944 5.3-0.84254-0.0115-1.8421-0.13473-2.2213-0.27388zm3.8686-2.4526c0.63121-0.96335 1.7252-6.4532 1.4371-7.2111-0.41838-1.1004-2.0677-0.70288-2.5801 0.62187-0.15694 0.40574-0.54925 2.0126-0.8718 3.5707-0.48094 2.3233-0.52551 2.9064-0.24772 3.2411 0.52813 0.63635 1.7804 0.51316 2.2625-0.22258zm29.692-0.55698c0.14384-2.0267 1.1939-6.1352 1.9091-7.1963 0.98996-1.469 2.2022-2.3024 4.2609-2.2043 2.8628 0.13637 3.3613 1.0033 2.8609 4.7014l-0.26419 2.1693-5.8204 0.04274c-0.0064 0.10914-0.11455 0.73255-0.24048 1.3854-0.27531 1.4272 0.0022 2.4167 0.8917 2.4167 1.7168 0.08879 1.897-1.8486 2.0512-2.2451l2.7447-0.03558c-0.0573 1.9982-1.3622 2.999-2.387 3.793-1.2234 0.99414-3.9287 0.54691-4.5037 0.07191-1.4025-0.85793-1.5531-1.5766-1.5025-2.8992zm3.7511-4.5955 2.7446-0.0278c1.2108-3.4654-2.6653-3.7593-2.7446 0.0278zm6.6342 7.0335c-0.71329-0.9068-0.42802-1.4922 0.39826-5.4056 0.99306-4.7034 1.7591-5.9553 3.8125-6.2307 0.86139-0.11553 1.2609-0.025 1.8667 0.42284l0.77074 0.56983 1.0856-4.7365 2.6544-0.03309-3.3621 15.988-2.6865 0.0124 4e-3 -0.34438c6e-3 -0.49088 0.0636-0.46602-0.79588 0.11726-1.3014 0.88316-2.6985 0.80528-3.4831-0.0658zm4.4672-1.6438c0.40621-0.44885 1.7637-5.744 1.7637-6.8796 0-1.3152-1.8217-1.4064-2.3484-0.11766-0.39136 0.95758-1.3427 5.3041-1.35 6.1682-0.0107 1.2561 1.195 1.9356 1.9347 0.82907zm6.7077 2.0738c-0.91366-0.36803-1.4564-1.4341-1.4456-2.8391 0.0149-1.9192 1.0073-6.0828 1.7534-7.3558 0.92746-1.5826 2.5356-2.3388 4.6488-2.1859 2.7828 0.20128 3.3813 1.4285 2.5982 5.3278l-0.25225 1.7595c-1.8225-0.0076-5.2256 0.03172-5.6176 0.02412l-0.30007 1.9352c-0.12032 3.2981 2.8177 1.6375 2.9424-0.60397l2.4192-0.03277c0.11623 0.0967 0.0127 0.39337-0.0706 0.73241-0.69856 3.582-4.031 4.1749-6.6759 3.2386zm5.1522-7.4804c0.3484-0.87457 0.24397-2.5024-0.58442-2.7223-1.271-0.31901-2.1796 1.6912-2.053 2.7025zm9.587 5.2896c-5e-3 -1.5353 0.90915-2.9442 2.0154-3.7319 0.44079-0.31387 1.4978-0.82912 2.4064-1.1961 2.2203-0.75978 2.784-1.6465 2.6826-2.514-1.0435-1.5335-3.1113 0.05434-3.0888 1.276l-2.5089-0.02108c0.2315-0.87932 0.29344-1.4841 0.75465-2.0649 1.897-2.4363 7.7224-2.4797 7.7848 0.56828-0.67045 3.35-1.5307 6.7839-1.9277 10.013l-2.749 0.02284c-0.13084 0.0011 0.0309-0.32902 0.0309-0.52685 0-0.51628 0.0583-0.48067-0.86976 0.14915-2.5899 1.416-4.5022 0.57734-4.5305-1.9742zm5.0808 0.07238c0.28869-0.30987 0.77824-1.3775 0.93178-2.0935 0.44458-2.073 0.45654-2.0252-0.84973-1.2951-0.64087 0.35819-1.4822 0.9894-1.6478 1.1889-0.49514 0.59661-0.78869 1.5283-0.56452 2.0278 0.34393 0.76627 1.5035 0.97009 2.1302 0.17189zm16.094 1.9198c-0.90549-0.73322-0.94243-2.185-0.14636-5.752 1.1357-5.0886 2.0863-5.7249 3.6546-6.178 1.5821-0.25565 2.3053-0.12039 3.0763 1.1342l0.993-4.8731 2.6491 0.01262-3.4179 15.976-2.6102 0.01862 9e-3 -0.73828c-0.96101 0.66256-2.2861 2.0661-4.3511 0.39966zm4.266-1.9641c0.41695-0.46073 1.5346-5.7999 1.5398-6.9762 5e-3 -1.167-1.1652-1.5508-1.9808-0.64952-0.46116 0.50958-1.4691 5.4263-1.4947 6.8052-0.0233 1.2595 1.1054 1.738 1.9357 0.82051zm6.5097 2.0319c-0.97563-0.54921-1.2634-1.1755-1.2634-2.7495 0-1.3333 0.93927-5.1583 1.4847-6.5174 1.2329-3.4491 7.7576-4.2919 7.7757-0.224 0 0.76784-0.12809 1.9933-0.28463 2.7233l-0.32641 1.4751-5.6067 0.0019-0.24745 1.2818c-0.28241 1.4628 7e-3 2.4271 0.92467 2.563 1.6425 0.12677 1.8825-1.7272 2.091-2.3937l2.7737 0.02206c-0.10088 1.2493-1.3536 3.2862-2.3352 3.83-1.1765 0.65174-3.878 0.61128-4.986-0.0124zm5.3167-7.3018c1.1916-4.414-3.2509-2.724-2.8259 0.02536zm25.031 7.3446c-1.3395-1.0738-1.7676-2.136-0.88502-6.186 1.021-4.6851 3.4373-5.9897 5.9318-6.0641 2.4945-0.07434 4.1899 2.1963 2.3879 6.9389l-5.6994-0.02378-0.39858 1.8074c-0.25628 1.1621 0.27175 2.0392 1.1769 2.0644 1.3538 0.03783 1.6757-1.5537 1.7844-2.2009l2.6159-0.02281c0.0617 1.3424-0.83475 2.7451-1.8301 3.4593-1.2236 0.8779-3.8439 1.2214-5.0838 0.22753zm2.5015-7.3841 2.7002 0.03166c1.107-4.9551-3.4594-2.1913-2.7002-0.03166zm7.1175 7.3344c-1.3068-0.70968-1.4274-1.8267-0.60796-5.6319 1.0262-4.7656 2.2959-6.0133 4.5062-6.372 2.4086-0.39086 4.03 0.52132 3.9749 2.3643l-0.21485 1.9393-2.7365 0.06592 0.22849-1.1331c0.24741-1.2269-0.7978-1.6286-1.582-0.91891-0.52887 0.47862-1.4493 3.5258-1.8221 6.3361-0.15404 1.1612 0.0612 1.7056 0.45804 1.8578 1.5611 0.26458 1.9269-1.8639 2.0601-2.8232l2.5648-0.03606c-0.19293 2.1421-1.3072 3.7263-2.648 4.5778-0.9984 0.6088-3.1521 0.33279-4.1812-0.22609zm9.3793 0.46809c-1.5978-0.229-1.7335-0.82359-0.56565-6.1834 0.43368-1.9904 1.0407-3.9415 0.95762-3.9475l-0.98152-0.01116 0.27428-2.0381 1.2511-0.03034 0.6063-3.2512h2.7858l-0.81213 3.1896 1.3427-0.02699-0.38365 2.1268-1.354 0.02425c-1.1311 6.8023-2.8091 8.1864-0.45142 7.9871l-0.37732 1.8912c-0.63562 0.34962-1.3669 0.4024-2.2922 0.26978zm16.954-0.31149c-0.82348-0.35307-1.2519-1.2587-1.2519-2.2586 0-1.2016 1.2964-6.7988 1.7551-7.6804 1.1175-2.1479 3.536-2.8833 5.6889-1.8616 1.0485 0.74742 1.5275 1.2306 1.0606 4.0274l-2.5359-0.01592c0.7776-2.668-1.4355-3.3227-2.1425-0.56575-0.15311 0.59704-1.0648 4.0768-1.0746 5.3702-0.0133 1.7452 2.1678 2.1118 2.2374-1.4656l2.9375-0.03189c-0.28097 3.4903-2.9742 6.2553-6.6745 4.4822zm13.561-0.24829c-0.73718-0.81458-0.63049-2.1488-0.0118-5.2089 1.0494-5.1908 2.1795-6.4538 4.2572-6.7325 1.353-0.12366 1.3966 0.11086 2.3455 1.1709l0.96875-4.9026 2.8878 0.01865-3.3762 16.012-2.7293 0.03586 0.0618-0.8244c-1.1209 0.99392-1.6194 1.1318-2.9144 1.1624-0.54236 0-1.2181-0.43144-1.4893-0.73116zm4.3691-1.8139c0.63879-0.70585 1.9839-6.8601 1.6205-7.4399-0.4084-0.65164-1.2416-0.68153-1.7999-0.0646-0.47588 0.52584-1.9537 5.0416-1.9649 6.3884 0.12121 1.7623 1.4535 1.8278 2.1443 1.1162zm5.3787 1.6608c-0.5385-0.59012-0.66948-1.8558-0.083-3.5332 0.46776-1.3378 1.5057-2.0318 3.9159-3.0584 2.1757-0.92668 3.1723-1.9353 2.5972-2.6283-2.0459-1.2486-2.7171 0.40916-2.9502 1.3462l-2.4744-0.05c-0.0767-0.12411 0.15034-0.81455 0.47311-1.4544 1.0066-1.9956 3.4685-2.9958 6.2205-2.2315 1.8336 0.50921 1.6356 0.6422 0.47654 7.562l-0.78302 4.6746-2.553 0.0026 9e-3 -0.81864c-1.3302 0.67968-3.169 1.8421-4.8486 0.18906zm4.7123-1.6554c0.42263-0.64501 1.2288-3.7671 1.0382-3.9577-0.18262-0.18262-2.9975 1.7734-3.1595 2.1954-0.21861 0.56971-0.21201 1.8414 0.0107 2.0642 0.72026 0.32683 1.758 0.19093 2.1106-0.30189zm5.8947 2.0498c-0.93393-0.8886-0.85409-2.0174-0.10288-5.698 0.81964-4.0159 1.4082-5.3229 2.537-6.0112 1.9246-1.065 3.4455-0.37049 4.1058 0.65761l0.88683-4.8012 2.8317-0.012c-0.15079 0.44099-3.476 15.768-3.476 16.039l-2.5755-0.0059 0.10994-0.94423c0.0758-0.43844-0.32439 0.09265-1.0505 0.70361-0.88185 0.74203-2.3883 0.58452-3.2662 0.07272zm4.222-2.1036c0.53724-0.59364 1.368-3.586 1.6172-5.8251 0.0872-0.99372 0.0739-1.5365-0.25296-1.8078-1.5293-0.81903-2.1573 0.30979-2.9516 4.2272-0.44225 2.1809-0.55793 3.1693-0.32969 3.5958 0.61366 0.68372 1.5496 0.19784 1.9171-0.19012zm-243.68 2.1867 2.5345-12.018 2.7005 0.0029-0.05666 0.95912c1.6402-1.2303 3.3504-1.9545 5.2983 0.0302 0.96431-1.1553 2.7646-1.5842 4.0194-1.1415 1.3628 0.52538 1.4161 1.0581 0.49531 5.3879l-1.4088 6.6867-2.602-0.01671 1.141-5.0189c1.167-4.2323 0.88183-5.2552-0.37468-5.1045-1.2851 0.15415-1.9663 1.423-3.4092 8.6188l-0.30506 1.5214-2.5708 0.01112c0-0.21379 0.46975-2.3442 0.8877-4.2768 1.1437-5.2886 1.1278-5.1585 0.68756-5.5239-0.56881-0.47208-1.6229-0.49032-2.1808 0.2646-0.26888 0.3638-0.72841 1.7926-1.0212 3.175-0.44805 2.1176-0.8167 4.3137-1.2717 6.4298zm18.551-12.131 2.7338 0.0523-2.4348 12.016-2.8342-0.0021zm11.786 12.1 2.6458-11.942 2.6611 0.0032-2.5666 11.947zm17.723-11.966 2.7953 0.03392c0.21672 0.0026 0.0044 0.8075 0.0044 0.86628 0.58543-1.0807 2.5654-1.6726 3.8192-1.0359 1.0819 0.57902 1.0572 1.2562 0.05479 6.5853l-1.043 5.5448-2.7193 0.01157 0.85983-4.5988c1.0551-4.2938 1.0655-5.3434 0.09834-5.4561-0.81207-0.08608-1.6193 0.3783-2.8062 5.398l-0.79726 4.6582-2.7155 0.0056zm12.652 12.119 3.1942-15.954 8.2985-0.01704-0.36203 1.9817-5.5265 0.01713-0.89814 4.2712 5.14 0.08396-0.34075 2.1669-5.2616-0.02402-1.5212 7.3986zm40.12-0.03912 2.3665-12.047 2.6213-0.02715-0.18198 1.7442c0.64255-0.67992 1.5887-2.039 3.1238-1.92l-0.47073 3.1609c-2.5633 0.24605-3.2784 1.022-3.7328 3.0318l-0.93778 6.0208zm16.795-0.03969 3.3849-15.92 2.8268 0.02297-3.3559 15.892zm34.651-0.06702 3.3376-16.075 8.4354-0.08555-0.50568 2.3972-5.4014 0.06734-0.76846 4.2268 4.9567 0.0079-0.37959 2.2997-5.0834-0.01885-1.0045 4.8894 5.1558 0.01606-0.39971 2.2545zm10.319-0.2527 3.336-15.823 2.728 0.05229-3.3404 15.823zm29.485 0.35534 2.4194-12.129 2.7034-0.03404c-0.68391 4.4022-0.40645 0.33389 2.6888 0.07255l-0.56508 3.1303c-1.5228 0-2.8648 0.55621-3.5512 3.8418l-0.79272 5.095zm9.405-12.095 2.6804 0.01226-2.5786 11.861-2.6118-0.02852zm11.79 11.987 2.3228-11.892 2.7854 0.03374-2.5464 11.894zm-194.26-13.483 0.44769-2.7181h2.6843l-0.65227 2.708zm14.786-2.5826 2.6147 0.03027-0.63625 2.5778-2.5739-0.05225zm9.5293-0.28084 3.1302-0.01728-3.6268 2.9371-2.1832 0.0026zm158.49 2.8778 0.41098-2.4729 2.7872 0.02531-0.40934 2.4511zm14.859-2.3781 2.5332-0.02009-0.47604 2.277-2.6959 0.0022zm-150.81-9.6362c-5.671-0.57298-10.291-2.6313-14.286-6.3648-9.0331-8.4421-11.402-22.871-6.3454-38.643 3.4871-10.875 10.946-19.77 20.367-24.286 20.649-8.9736 36.81 4.0497 39.714 20.725 0.0872-0.08167 0.13054-0.5664 0.18036-0.82518 0.0766-0.39783 1.0075-5.3965 2.0687-11.108l1.9294-10.385h79.966c-1.2264 6.0353-2.2774 11.283-3.3772 16.663l-23.098 0.1378-1.721 9.1943 22.805 0.19843-2.5797 16.933-23.378 3.1e-4 -1.9374 10.481 23.033-0.01709-3.5389 17.187-40.247 0.06239 4.9676-27.449h-21.347l-5.5607 26.954-16.978-0.0663c-0.0757-0.0757 3.034-16.977 3.2554-17.694-0.80991 1.0805-4.8096 6.2646-6.586 8.1757-5.9576 6.2317-12.257 9.3994-20.162 10.139-3.2188 0.30102-4.0477 0.29947-7.1438-0.0133zm9.525-2.2204c9.4749-1.5422 18.049-8.4068 23.233-18.601 0.7935-1.5604 1.5244-3.105 1.6243-3.4324l0.18155-0.59532h-13.151l-1.4304 2.0001c-2.0397 2.852-4.6166 5.1899-6.9401 6.2961-7.4169 3.5314-13.762 2.861-18.283-1.9316-3.6822-3.9033-4.9188-8.7958-4.0497-16.022 0.48305-4.0164 0.91739-5.8036 2.1392-8.802 1.8808-4.6158 6.4047-10.08 9.8665-11.917 2.2846-1.2122 6.21-2.1678 8.9052-2.1678 4.06 0 6.9761 1.187 9.679 3.9399 1.8953 1.9304 3.2243 4.1974 4.1234 7.0339l0.58908 1.8585 12.017-0.08734c0.32197-0.32197-0.68991-5.09-1.6766-7.9-2.5677-7.313-6.6472-12.245-12.539-15.159-4.151-2.0533-6.2754-2.5143-11.509-2.4976-3.6447 0.0116-4.7112 0.10941-6.4581 0.59206-8.4226 2.3271-16.159 8.3794-20.862 16.321-4.0896 6.9056-6.1758 14.155-6.4724 22.491-0.22115 6.2166 0.61537 10.744 2.8565 15.46 3.244 6.826 9.5832 11.826 16.605 13.096 2.7186 0.49193 8.6056 0.50455 11.553 0.0248zm-10.186-1.7543c-2.2723-0.34442-5.724-1.5483-7.6097-2.6541-2.1454-1.2581-6.0956-5.257-7.4302-7.5218-3.5619-6.0445-4.7344-12.895-3.5996-21.032 1.206-8.6464 4.1991-15.537 9.5476-21.98 4.4331-5.3403 9.5758-8.8378 15.177-10.322 2.9271-0.77553 9.4119-0.85238 12.258-0.14527 5.4508 1.3543 10.814 4.8368 13.474 8.7498 1.9032 2.7993 3.6884 7.1955 4.5523 11.21l0.18503 0.8599h-8.4662l-0.45072-1.3891c-0.89828-2.7684-2.2848-5.0224-4.3536-7.0776-3.5178-3.4946-6.5762-4.6342-11.907-4.4368-5.3754 0.19906-9.2569 2.0398-13.399 6.3541-5.8263 6.0688-8.8262 13.773-8.8262 22.666 0 4.852 0.85914 8.0255 3.1022 11.459 3.0977 4.7418 8.1824 7.3158 13.831 7.0015 5.7404-0.31938 10.362-2.7796 14.746-7.85l2.0554-2.3772 9.1358-8e-3 -0.77741 1.54c-4.0722 8.0669-11.736 14.496-19.631 16.467-2.5858 0.64558-8.8368 0.90751-11.613 0.48664zm46.831 1.3819c1.6325-9.9679 4.1567-18.54 5.3614-26.741l23.449-0.21626 2.2868-12.924-23.217-0.16002 2.537-13.721 23.053 0.0692 2.5023-12.42-36.894-0.19669-12.294 66.212 13.216 0.0977c1e-5 0 0 2e-5 0 2e-5zm-10.848-2.5721c4.217-21.641 7.5868-41.271 11.545-61.445l32.563-0.0435-1.6735 8.0698-23.348 0.1378-3.4783 17.972 23.444 0.0142-1.2165 8.4667h-23.491l-5.5065 26.789c-2.9461 0.01102-5.8922 0.02904-8.8384 0.0388 0.16022-0.64285 0 1e-5 0 1e-5zm75.302-10.03-22.803 0.01897 2.8093-14.436h23.263c0.43362-4.7591 1.8622-9.0333 1.8622-13.229h-22.741l2.502-13.361 23.141-0.1378 2.439-12.38-37.016-0.0358-12.288 66.4c12.133-0.0453 24.265-0.0907 36.398-0.136zm-24.918-51.459 32.876 0.26476-1.7777 8.1965-23.104 0.1378c-1.2508 6.0988-2.5881 12.303-3.652 17.595l23.061 0.13667-1.3638 8.3245-23.361 0.1378-3.9199 18.692 23.622-0.02542c-0.51954 2.8981-1.0277 5.4067-1.6881 8.453h-32.457zm-77.013 49.851c4.2731-1.1024 7.9807-4.0078 10.904-8.5444l1.0406-1.6149 14.837-4e-3 1.3894-7.6068c0.76417-4.1837 1.3847-7.6961 1.379-7.8052l-13.672-0.03435-0.35065-1.9282c-0.6735-3.7036-3.4875-7.7972-6.3962-9.5356-2.8202-1.6854-5.7299-2.0243-9.9335-1.1568-3.5315 0.72879-5.6393 1.9271-8.3442 4.7438-2.5923 2.6994-3.9519 4.6776-5.1034 7.4249-3.1245 7.455-3.1758 16.182-0.12306 20.939 1.6132 2.514 4.4408 4.699 6.8002 5.2549 2.4916 0.46414 5.1653 0.44231 7.5727-0.13217zm70.801-37.416h-21.329l-1.6778 9.3296 21.264 0.0632z" fill="#008e5a"/>
</svg>
