<?xml version="1.0" encoding="UTF-8" standalone="no"?>
<!-- Created with Inkscape (http://www.inkscape.org/) -->

<svg
   width="210mm"
   height="297mm"
   viewBox="0 0 210 297"
   version="1.1"
   id="svg5"
   xml:space="preserve"
   inkscape:version="1.2.1 (9c6d41e410, 2022-07-14)"
   sodipodi:docname="dibujo.svg"
   xmlns:inkscape="http://www.inkscape.org/namespaces/inkscape"
   xmlns:sodipodi="http://sodipodi.sourceforge.net/DTD/sodipodi-0.dtd"
   xmlns="http://www.w3.org/2000/svg"
   xmlns:svg="http://www.w3.org/2000/svg"><sodipodi:namedview
     id="namedview7"
     pagecolor="#ffffff"
     bordercolor="#000000"
     borderopacity="0.25"
     inkscape:showpageshadow="2"
     inkscape:pageopacity="0.0"
     inkscape:pagecheckerboard="0"
     inkscape:deskcolor="#d1d1d1"
     inkscape:document-units="mm"
     showgrid="false"
     inkscape:zoom="0.35355339"
     inkscape:cx="134.35029"
     inkscape:cy="684.47937"
     inkscape:window-width="1366"
     inkscape:window-height="697"
     inkscape:window-x="-8"
     inkscape:window-y="-8"
     inkscape:window-maximized="1"
     inkscape:current-layer="layer1" /><defs
     id="defs2" /><g
     inkscape:label="Capa 1"
     inkscape:groupmode="layer"
     id="layer1"><path
       style="display:inline;fill:#d94426;fill-opacity:0.535714;stroke-width:0.730819;stroke-linejoin:round"
       d="m 5.5590561,75.234503 c 7.3387999,15.867679 1.7940977,21.240975 3.7685723,23.603168 9.1628396,10.962099 10.2856486,18.932199 11.7024136,20.627969 0.291209,0.34856 7.615359,4.08142 9.353545,4.50192 1.190078,-2.77685 5.522406,3.2336 4.530678,4.22532 -0.991729,0.99172 -5.133203,8.68528 -1.785113,7.31 6.442409,-2.64627 5.355341,-6.9133 5.355341,-10.2852 0,-3.37186 2.975187,-6.34707 4.363614,-7.14046 1.388417,-0.79337 6.545415,-0.79337 6.743765,-2.38014 0.198351,-1.58678 -3.570235,-0.99173 -2.578498,-3.37188 0.991728,-2.38014 1.785114,-15.669326 1.785114,-15.669326 0,0 -2.830689,0.395016 -4.561964,-1.388422 C 34.072123,84.79677 35.310954,79.598095 34.71592,70.474182 34.12088,61.35027 39.872918,46.275964 39.872918,46.275964 c 0,0 -8.231218,-5.508974 -13.991217,-3.003978 -1.687646,0.733959 -3.06654,-1.954664 -4.454964,-2.153014 -1.38842,-0.198322 -1.646839,2.594129 -2.241876,4.180903 -0.595039,1.586774 -3.90685,2.761213 -3.90685,2.761213 0,0 4.728387,0.52851 0.19835,9.520613 -0.743288,1.475404 0.785854,2.910949 1.299816,4.250647 0.511423,1.33307 1.150748,1.329452 2.11899,3.972886 1.5728,4.293986 2.36451,7.111685 -4.180909,5.326562 -6.5454187,-1.785096 -4.300775,-4.462312 -6.9108265,-3.084661 -2.470325,1.303874 0.5456189,4.577577 -0.044443,5.663157 -1.3462479,2.476795 -3.2698767,-2.988344 -3.9850531,-2.442709 -0.9592098,0.731805 1.7851124,3.96692 1.7851124,3.96692 z"
       id="path592"
       sodipodi:nodetypes="csscssssssssscssscssssssscc"
       inkscape:label="Santiago" /><path
       style="fill:#d94426;fill-opacity:0.535714;stroke-width:0.730819;stroke-linejoin:round"
       d="m 33.956058,136.03615 c 0,0 6.907296,-1.7158 5.340871,-10.91337 -0.514851,-3.02307 2.958431,-5.94183 4.697092,-6.79791 2.208095,-1.08724 3.852197,-0.57815 4.491665,-0.89786 1.278934,-0.63946 1.956239,-0.98272 1.956239,-1.89622 0,-0.91352 -2.526521,-1.82057 -2.880847,-2.46651 -0.263593,-0.48056 2.485301,-6.42469 1.853804,-16.254249 0,0 0.956904,-0.500392 -2.743258,-0.91814 -3.505655,-0.395761 -9.463505,-11.149039 -9.970402,-13.430687 -0.38905,-1.751176 -1.806779,-6.222493 -1.058388,-18.544536 0.160537,-2.643213 3.836104,-15.638171 4.712485,-17.09399 0.552704,-0.91814 5.153577,2.477595 5.244927,3.482465 0.09135,1.004899 2.005164,5.761711 0.908936,6.766582 -1.09623,1.004871 -4.471679,2.368683 -5.019795,4.652485 -0.548113,2.283803 0.913524,8.404428 4.019509,5.207071 3.105982,-3.197329 6.648002,-5.571702 9.070645,-5.17572 1.503649,0.245831 3.977075,1.160822 4.342483,2.531098 0.365411,1.370303 1.682186,7.69577 2.687063,7.878458 1.650833,0.828535 5.436202,3.219951 6.247902,3.31356 1.312182,0.151366 2.408411,-0.873779 2.773822,-1.147839 0.365408,-0.274006 4.492483,-1.254432 5.115734,-0.639466 0.730012,0.720313 1.479346,3.834971 1.461637,4.841666 -0.03469,1.971927 -3.654095,14.799112 -3.8368,15.438577 -0.182717,0.639466 11.748111,9.545695 15.529911,14.433685 1.034045,1.33649 -4.110857,11.41903 -4.933031,12.51528 -0.822171,1.09621 12.436765,9.58218 13.063387,10.41417 0.822182,1.09163 0.183407,3.71103 -0.365405,4.20219 -1.995986,1.78654 -4.841674,3.47143 -6.851426,4.29358 -2.009753,0.82218 -4.293564,3.92813 -4.293564,5.29844 0,1.37028 -0.365422,6.48603 -0.548116,7.4909 -0.182716,1.00487 -3.143832,3.58608 -3.105982,4.2022 0.129186,2.10302 -0.421518,9.43457 0.505695,10.93555 1.056399,1.71008 3.057061,7.60902 3.513824,8.15711 0.456761,0.54812 4.019506,2.74058 3.745448,3.10599 -0.27406,0.3654 -0.677931,0.37794 -4.567622,-0.63947 -2.13055,-0.55727 -4.56762,-0.63947 -5.389791,-0.54813 -0.822172,0.0914 -7.856309,-4.38491 -7.673604,-6.02924 0.182716,-1.64434 0.456764,-2.74059 -1.827048,-4.56761 -2.28381,-1.82706 -3.279922,-3.91747 -4.019508,-9.95742 -0.548113,-4.47626 -4.171647,-5.62413 -7.125484,-7.43282 -0.70117,-0.42934 -3.724334,-0.5922 -4.293566,-0.0583 -1.118396,1.04915 -5.115736,5.2071 -6.942786,5.2071 -1.827047,0 -1.521644,-2.0365 -2.435168,-2.40191 -0.913524,-0.3654 -6.245974,1.23598 -7.156834,1.30567 -1.688675,0.12926 -3.280294,-0.0166 -4.899782,0.36541 -0.764955,0.18009 -3.321935,3.38004 -3.961403,3.56276 -1.608404,0.31176 -1.644815,0.50581 -1.414618,-4.84169 0.100543,-2.3354 3.33302,-1.1876 3.33302,-1.1876 0,0 3.197335,-3.19732 2.101106,-7.39952 -1.09623,-4.20223 0.396755,0.0378 -0.242711,-7.90983 z"
       id="path1202"
       sodipodi:nodetypes="csssssssssssssssscssssssssssssssssssssssssssscscscc"
       inkscape:label="Tepic" /><path
       style="fill:#d94426;fill-opacity:0.535714;stroke-width:0.730819;stroke-linejoin:round"
       d="m 40.47567,154.53494 c 0,0 3.746557,-1.55031 4.327924,-0.96893 0.581361,0.58135 1.808684,1.16272 0.968935,1.55029 -0.839746,0.38758 -2.583833,-0.83975 -3.746557,-0.1939 -1.162729,0.64597 -2.067074,1.48572 -1.09813,2.84222 0.968935,1.35652 3.42358,2.97141 3.552768,3.94035 0.129185,0.96896 1.614897,3.55278 -1.744086,5.10307 -3.358992,1.55031 -5.167671,1.35655 -5.167671,3.359 0,2.00248 1.033528,5.68445 -0.710559,7.81612 -1.744091,2.13165 -2.039468,1.18814 -2.454647,2.84219 -0.847207,3.37528 1.873281,4.88523 1.937879,6.88771 0.06461,2.00247 0.06461,2.41412 0.516768,3.12468 0.452173,0.71054 1.556915,2.31264 -2.196255,4.13414 -2.31435,1.1232 -2.672506,2.19627 -6.677456,0.25854 -4.00494,-1.9379 -5.497524,-2.29013 -8.244203,0.64596 -1.873286,2.00247 -0.246688,-1.73522 -5.296868,-5.42609 -6.8463083,-5.00355 0.257819,-9.44636 3.617375,-9.56019 3.811156,-0.12899 7.040951,-0.64595 9.947771,-1.42109 2.20581,-0.58821 6.653381,-4.75605 5.749036,-6.50012 -0.904345,-1.74411 0.193792,-3.06008 -2.454647,-3.51225 -2.648432,-0.45219 -1.291923,-2.77764 -2.002475,-3.359 -0.710556,-0.58138 -1.643903,-2.7456 -4.586308,0.0646 -0.694438,0.66324 -2.971418,-0.90433 -3.940353,-1.42113 -1.421108,0.19391 0.516771,-5.29684 1.485706,-5.29684 0.968941,0 2.454647,-0.64595 1.937876,-1.87329 -0.516763,-1.22733 2.842221,-3.22982 3.100604,-2.77765 0.258399,0.45219 -0.431873,2.69702 0.258399,3.29442 0.732667,0.63405 1.647354,1.4701 4.715503,-2.13166 1.485703,-1.74411 8.203682,-1.42113 8.203682,-1.42113 z"
       id="path1204"
       sodipodi:nodetypes="csscsssssssssssssssssscssssscc"
       inkscape:label="Vallarta" /><path
       style="fill:#d94426;fill-opacity:0.535714;stroke-width:0.730819;stroke-linejoin:round"
       d="m 28.977593,197.16824 c 0,0 -4.909285,-3.22979 -6.072013,-2.64844 -1.162726,0.58138 -2.583842,2.77765 -3.488178,2.77765 -0.904345,0 -1.098138,4.52169 2.067065,8.52665 3.165199,4.00495 13.048375,19.63715 17.311706,21.12286 2.512056,0.87541 4.429133,2.70844 4.650904,-0.83975 0.129186,-2.06708 1.679495,-4.06953 2.777625,-3.81115 1.098129,0.25826 3.617375,-0.58135 4.457121,-4.52173 0.839741,-3.94035 3.22979,-7.10553 4.457114,-7.75149 1.227323,-0.64598 2.002474,-2.64846 1.421116,-3.55278 -0.581367,-0.90436 2.454641,-0.51672 3.811153,-1.09812 1.356518,-0.58138 5.072469,-3.38878 7.234742,-1.93791 2.780258,1.86557 3.100612,3.68198 3.746567,5.68446 0.645956,2.00248 2.519236,2.45464 3.036007,3.48819 0.516768,1.03351 -0.322978,4.13414 0.129186,4.00495 0.452164,-0.12927 4.263329,0.96894 5.103079,5.16765 0.839738,4.19875 7.040954,6.00743 9.624787,4.65092 2.583833,-1.35653 1.992442,-3.38681 5.619857,2.06705 3.344663,5.02878 3.678717,-3.48034 5.035239,-5.28902 1.35651,-1.80869 4.97599,-2.76002 5.26552,-3.1306 0.31513,-0.40332 -2.93683,-0.86328 -3.12279,-1.90923 -0.0973,-0.54709 -1.55813,-2.33194 2.6406,-4.78658 4.19875,-2.45464 0.33792,-3.06817 -0.22373,-4.01277 -0.58583,-0.98515 -1.00352,-5.54743 0.48218,-5.67661 1.48571,-0.12927 2.06706,-0.25854 1.67948,-2.19627 -0.38757,-1.93787 2.84222,-1.16273 3.10062,-2.19628 0.25826,-1.03351 -0.1939,-2.45464 -2.00248,-2.77761 -1.80868,-0.32298 -1.09814,-3.48818 -1.61489,-4.39252 -0.51677,-0.90435 0.45217,-3.68197 2.19624,-3.42357 1.74411,0.25826 2.63427,-0.43614 0,-2.77765 -1.16273,-1.03352 -2.58383,1.35653 -5.03847,1.80871 -2.45464,0.45217 -3.53655,2.25326 -8.139091,-2.90683 -3.317892,-3.71981 -5.391467,-4.32467 -6.683386,-4.58307 -1.291913,-0.25827 -4.362518,-1.55355 -8.561251,-1.35976 -4.198734,0.1939 -8.397472,-5.49066 -9.108027,-6.65338 -0.710553,-1.16271 1.87328,-1.29192 -2.260855,-4.7155 -4.134135,-3.42357 -2.26086,-10.10102 -4.392521,-12.68485 -2.131668,-2.58382 -5.03848,-4.75606 -8.203679,-4.1101 -3.165203,0.64595 -4.7801,5.3615 -8.139086,5.3615 -3.358992,0 -5.749036,-0.58132 -6.07202,0.51674 -0.282974,0.96206 4.263334,4.45712 4.134141,6.52421 -0.07657,1.22492 -0.258372,4.19871 -4.521715,5.29686 -4.476876,1.15315 -2.196262,4.58631 -2.51924,5.16766 -0.322978,0.58137 2.389364,3.03 -1.87328,5.94282 -3.875755,2.64843 -0.322978,5.42608 -0.129186,6.52421 0.193793,1.09811 0.452164,3.22978 0.968941,4.26332 0.516762,1.03354 1.356512,3.1006 -0.193792,4.26332 -1.550302,1.16274 -4.586308,3.35901 -8.591257,2.58384 z"
       id="path1206"
       sodipodi:nodetypes="csssssssssssssssssssssssscsscsssccssssssssssssssc"
       inkscape:label="Costa" /><path
       style="fill:#d94426;fill-opacity:0.535714;stroke-width:0.730819;stroke-linejoin:round"
       d="m 88.837742,141.44873 c 0,0 14.919188,0.94653 16.363028,0.16683 0.90121,-0.48661 2.84223,-1.6795 2.84223,-3.87574 0,-2.19627 5.42605,0.90433 5.42605,0.90433 0,0 2.97141,1.80868 1.80869,3.87577 -1.16274,2.06705 -1.31402,3.83353 0.12926,6.072 0.5376,0.83382 -1.29191,8.39748 -1.4211,9.68938 -0.12926,1.29192 -0.38758,2.19628 0.51677,3.1006 0.90433,0.90436 2.19053,0.69018 1.69516,4.03496 -0.34186,2.30843 2.18059,4.64442 2.18059,5.41958 0,0.77515 -0.90433,1.26838 -1.42111,1.91434 -0.51677,0.64596 0.64596,0.64596 0.77515,1.42113 0.12927,0.77515 0.38759,1.4211 -1.55029,2.84223 -1.93789,1.4211 -5.10608,2.47646 -6.45959,1.4211 -0.83028,-0.64739 -1.32194,-1.43543 -1.32194,0.24417 0,1.6795 0.1975,4.13915 -0.64596,5.16768 -1.3911,1.69652 -4.99198,4.07103 -7.850698,3.76089 -2.315953,-0.25136 -7.509876,-7.00661 -7.75935,-6.92933 -0.579265,-0.60999 -4.810089,-5.14552 -5.791454,-5.74579 -0.4865,-1.88189 -4.042785,-7.65233 -3.655208,-10.23615 0.387574,-2.58386 -0.737318,-6.96203 0.167027,-7.99557 0.904345,-1.03354 3.237632,-3.63171 3.108438,-6.73231 -0.129186,-3.1006 -0.448919,-5.67794 2.910065,-8.52016 z"
       id="path1217"
       sodipodi:nodetypes="csscsssssssssssssccssscc"
       inkscape:label="Minas" /><path
       style="fill:#d94426;fill-opacity:0.535714;stroke-width:0.730819;stroke-linejoin:round"
       d="m 125.89901,141.29217 c 0,0 -8.22171,-2.64924 -8.76983,-2.00977 -0.5481,0.63946 -0.22954,1.57915 -0.36538,1.91839 -0.27401,0.68515 -0.18286,1.0049 -0.63949,1.18759 -0.45678,0.18258 -1.64434,3.47139 -1.09622,4.29357 0.54812,0.82216 1.27893,2.14677 1.09625,4.24789 -0.18259,2.10109 -1.55302,8.95254 -1.46166,9.50067 0.0914,0.54812 2.4665,1.2789 2.4665,2.74056 0,1.46161 -0.5481,2.78625 0.45672,4.52193 1.00487,1.73572 1.00396,3.56288 5.5725,3.56274 2.46649,-8e-5 2.14678,1.27896 4.75032,-0.3654 1.67089,-1.05531 2.10109,-0.7765 3.38005,-0.95919 1.11859,-0.15993 3.53285,-2.2014 2.51221,-5.84656 -0.95922,-3.4257 -0.68516,-5.43547 -0.68516,-5.43547 0,0 -2.74058,0.5938 -3.19736,-2.19246 -0.55179,-3.36585 -0.0914,-8.13037 -0.0914,-8.13037 0,0 -4.56764,-3.10598 -3.92817,-7.03412 z"
       id="path1219"
       sodipodi:nodetypes="csscscssssssscsccc"
       inkscape:label="Juarez" /><path
       style="fill:#d94426;fill-opacity:0.535714;stroke-width:0.730819;stroke-linejoin:round"
       d="m 118.22542,191.07924 c 0,0 -6.39466,0.0914 -6.76009,-0.0914 -0.36541,-0.18258 -2.74056,-2.37515 -4.01952,-1.37028 -1.27893,1.00487 -0.59377,3.19733 -0.41105,3.56274 0.18257,0.3654 -0.54804,2.32949 1.41596,2.64923 1.11525,0.18147 2.2838,1.27901 2.00974,3.01462 -0.40803,2.58393 -2.08347,1.90331 -2.87759,2.23813 -0.75796,0.31956 0.17319,1.70055 -0.22842,2.60356 -0.36541,0.82218 -1.71248,0.49995 -2.23812,1.05061 -0.90507,0.94819 -0.73084,2.37515 0.18257,4.11085 0.91354,1.73568 2.14681,1.59865 2.14681,2.51218 0,0.91352 -2.00978,3.19734 -3.92817,4.01951 -1.34345,0.57578 -1.18361,1.53498 -0.51658,2.32739 0.66703,0.79243 1.8412,1.41809 2.52635,1.32672 1.37028,-0.18258 2.00974,1.55299 -1.09624,2.46652 -4.40125,1.29448 -4.2022,3.01464 -4.2022,3.01464 0,0 -2.009772,6.12059 -2.557893,6.8514 -0.548094,0.73084 1.096243,4.20223 8.039023,0 6.94278,-4.20219 6.92145,-5.0349 13.9769,-3.83679 4.84169,0.82218 3.56276,2.46652 4.93304,3.47139 1.37031,1.00487 5.5725,10.50554 6.48603,10.59689 0.91352,0.0914 1.37027,-2.19246 3.6541,-2.00975 2.28381,0.18259 2.57825,-3.9212 4.2022,0.27401 1.09625,2.83195 0,2.10111 -0.18257,3.47142 -0.18259,1.37027 -0.18259,3.65408 0.274,4.5676 0.45678,0.91353 1.09624,2.46652 -1.27893,5.2071 -2.37515,2.74058 2.64923,1.91839 2.64923,2.46652 0,0.54809 2.64921,0.45675 2.74059,4.11085 0.0914,3.65408 4.20219,2.19246 4.93301,0 0.73083,-2.19245 1.82705,-3.92816 2.83192,-3.92816 1.0049,0 1.5078,-1.14726 -0.36541,-4.01952 -1.37028,-2.10111 0.50316,-1.59292 -2.74057,-4.47625 -1.64434,-1.46165 0.93228,-1.82161 -2.64921,-4.11085 -3.66996,-2.3458 0.91651,-4.58364 1.64437,-5.48114 0.72384,-0.89259 -0.73085,-2.64924 0.0914,-3.2887 0.82218,-0.63947 0.82215,-1.64434 0.82215,-2.10111 0,-0.45676 2.84375,-1.64354 3.10599,-5.66385 0.274,-4.20223 0,-9.86605 -0.63947,-11.14498 -0.18286,-2.10112 -1.91839,-2.10112 -2.74058,-1.91843 -0.82215,0.18258 -2.72503,-1.77314 -4.65895,-2.6492 -1.91572,-0.86781 -1.3703,-3.10599 -0.36543,-3.38005 1.00487,-0.274 -8.13037,-7.85631 -12.51528,-8.76983 -4.38492,-0.91353 -5.93868,-1.23914 -7.94765,-2.55786 -1.78971,-1.17483 -2.55787,-4.29357 -3.74545,-5.11573 z"
       id="path1221"
       sodipodi:nodetypes="ccscssssssssscscssssscsscsssssssssssscssssscc"
       inkscape:label="Zapotlan" /><path
       style="fill:#d94426;fill-opacity:0.535714;stroke-width:0.730819;stroke-linejoin:round"
       d="m 131.20062,170.91 c 0,0 0.097,1.00123 0.80747,1.48571 -0.48448,0.16159 -2.26088,-0.12927 -2.51925,0.51677 -0.25854,0.64596 -1.45341,1.93787 -1.71179,1.84097 -0.25854,-0.0969 -1.88779,-1.77023 -0.12926,-3.06831 1.35651,-1.00122 2.03476,-0.96893 2.61611,-0.90432 0.58138,0.0646 0.93664,0.12927 0.93664,0.12927 z"
       id="path1223"
       sodipodi:nodetypes="cccssscc"
       inkscape:label="Divisional" /><path
       style="fill:#d94426;fill-opacity:0.535714;stroke-width:0.730819;stroke-linejoin:round"
       d="m 131.87887,170.45784 c 0,0 -0.60921,0.76219 0.74289,2.03476 0.54906,0.51678 2.6484,-0.71056 3.64966,-0.61367 1.00122,0.097 5.23057,0.6888 5.58753,0.35531 0.78605,-0.73438 0.097,-1.48571 -1.87327,-2.93913 -1.97019,-1.45341 -1.08401,-3.40822 -3.87577,-3.1975 -1.71176,0.12928 -1.45338,1.58261 -1.84097,2.09938 -0.38756,0.51677 -0.45219,1.97016 -2.39007,2.26085 z"
       id="path1225"
       sodipodi:nodetypes="cssssssc"
       inkscape:label="Reforma" /><path
       style="fill:#d94426;fill-opacity:0.535714;stroke-width:0.730819;stroke-linejoin:round"
       d="m 138.91985,145.42692 c 0,0 -3.55279,-1.93788 -3.81117,-0.51678 -0.25853,1.4211 -0.57311,1.82797 -2.3333,2.22627 -2.06689,0.46769 -1.93002,1.33108 -1.93002,1.33108 0,0 -0.93894,7.94531 -0.0348,8.72047 0.90435,0.77514 1.53462,0.29304 2.56816,0.87436 1.03355,0.58136 0.24418,3.0614 1.14839,4.99928 0.35624,2.98842 0.47882,2.3586 4.4682,0.26157 3.41118,-1.79302 3.41253,-1.94113 8.5156,-1.42435 0.67247,0.15136 0.12982,-3.88923 0.12982,-3.88923 0,0 -3.47138,0.18285 -4.01951,-0.18257 -0.54812,-0.36544 -4.29357,-3.56276 -4.29357,-4.84169 0,-1.27893 1.59868,-4.8417 1.96409,-7.07981 -0.63947,-0.36541 -2.37206,-0.47855 -2.37206,-0.47855 z"
       id="path1227"
       sodipodi:nodetypes="ccsccscsccssccc"
       inkscape:label="Hidalgo" /><path
       style="fill:#d94426;fill-opacity:0.535714;stroke-width:0.730819;stroke-linejoin:round"
       d="m 121.84627,172.09362 c 0,0 -3.80354,-0.42678 -3.89491,0.7608 0.31964,0.91352 0.91905,1.59475 0.86787,2.32948 -0.0914,1.31217 -3.8179,4.3517 -6.46712,4.44304 -2.6492,0.0914 -2.58462,-0.65515 -2.85868,-0.19832 -0.27401,0.45674 -0.0379,1.7846 -0.0379,2.88084 0,1.09621 -0.274,2.00974 -0.63947,2.37514 -0.3654,0.36544 1.62216,1.89166 1.89622,2.89653 0.274,1.0049 -0.41399,2.03549 1.09624,2.39734 1.61761,0.38758 2.99954,-0.0362 5.3206,0.15606 2.28383,0.1892 3.38465,2.8541 3.65871,3.49357 0.27401,0.63946 2.69973,3.4154 5.99981,3.42896 3.80545,0.0166 12.31174,4.39085 16.78801,9.78064 4.47628,5.38979 5.43547,0.77649 5.43547,0.137 0,-0.63947 -0.5481,-1.73568 -0.91353,-2.64921 -0.36541,-0.91352 0,-2.10111 0.73084,-2.64921 0.73081,-0.54811 -0.27401,-2.46651 -0.91353,-3.56276 -0.63946,-1.09621 1.27893,-4.20219 3.19733,-1.82705 1.37028,1.09624 0.82219,-1.91839 1.37028,-2.19245 0.54811,-0.27401 5.11575,-2.37515 6.76008,2.83192 1.37031,1.18758 0.63961,-2.19246 1.91841,-2.19246 1.27893,0 3.01463,0 3.01463,-0.63946 0,-0.63948 2.55787,0 2.83193,-0.5481 0.274,-0.54812 -0.45678,-1.82705 -2.74058,-1.64437 -1.55299,-0.82201 -0.47752,-1.92229 -1.09624,-3.65407 -0.55666,-1.55803 -2.01077,-4.43787 -3.92815,-5.29845 -1.58569,-0.71172 -9.74,-0.085 -9.7747,-0.63946 -0.0914,-1.46165 0.38165,-2.36501 5.11573,-6.66871 4.01951,-3.65411 3.17887,-4.00317 3.01464,-5.48117 -0.18285,-1.64434 -0.0914,-1.82705 -0.0914,-1.82705 0,0 -1.73568,-1.18772 -2.55786,-2.2838 -0.0912,-1.37028 -0.12679,-0.36226 -1.46162,-1.96409 -0.45675,-0.54812 -0.41112,-3.15164 -0.41112,-3.15164 0,0 -1.96405,1.32459 -3.15164,1.5073 -1.18756,0.18259 -2.44594,0.46598 -3.38002,0.13701 -0.99932,-0.35193 -1.82708,0.18285 -2.74058,-0.0914 -1.05724,-0.31727 -5.5725,1.87273 -5.66385,2.42086 -0.0914,0.54809 1.2789,2.60354 2.10109,3.51707 0.82218,0.91352 3.26141,2.95674 2.55786,3.88248 -0.86784,1.1419 -3.92814,0.50244 -5.61815,0.45675 -1.4294,-0.0387 -6.07494,0.59367 -6.89713,0.95918 -0.82215,0.36544 -1.46163,1.82708 -2.64921,1.91843 -1.18758,0.0914 -0.23312,0.0914 -1.28351,-1.18762 -0.53393,-2.63876 -1.90036,-2.6352 -4.11741,-2.42406 z"
       id="path1229"
       sodipodi:nodetypes="ccssssssssssssssscccssscsssssccsccssssssssccc"
       inkscape:label="Chapala" /><path
       style="fill:#d94426;fill-opacity:0.535714;stroke-width:0.730819;stroke-linejoin:round"
       d="m 145.67682,142.61678 c 0,0 -0.22843,3.42571 -1.27894,3.51705 -1.05055,0.0914 -2.2838,0 -2.32948,0.27401 -0.0455,0.274 -0.8221,2.32949 -0.95911,3.15166 -0.137,0.82216 -1.00487,2.10112 -0.86784,3.19734 0.13701,1.09624 0.86787,1.82702 2.10112,2.78624 1.23325,0.95917 0.36557,1.96408 4.52195,1.59865 4.15653,-0.36541 4.24788,-1.27894 5.61816,-4.11086 1.37027,-2.83192 2.46652,-4.84166 1.78139,-6.34897 -0.68515,-1.50731 -0.82218,-0.13701 -0.95921,0.18257 -0.13701,0.31973 -0.13701,2.42084 -2.60355,1.23325 -2.46651,-1.18758 -1.78137,-3.92817 -2.00974,-4.4306 -0.22843,-0.50244 -2.78627,-2.00974 -3.01465,-1.05053 z"
       id="path1247"
       sodipodi:nodetypes="cscssssssssssc"
       inkscape:label="Libertad" /><path
       style="fill:#d94426;fill-opacity:0.535714;stroke-width:0.730819;stroke-linejoin:round"
       d="m 158.69453,168.3325 c 0,0 12.51529,0.0914 13.15475,-0.63954 0.63947,-0.73082 0.41392,-1.99359 2.55786,-1.27894 2.74059,0.91353 4.34813,-3.94864 4.29361,-6.02925 -0.0387,-1.4725 -1.09625,-2.83192 -2.28383,-4.01951 -1.18759,-1.18759 3.47138,-1.82705 5.20706,-1.46165 1.73572,0.36541 8.03903,-1.18756 9.31796,-1.82703 1.27893,-0.63946 2.64924,1.09622 3.56273,1.55297 0.91353,0.45677 2.37518,-1.73568 3.01465,-0.18258 0.63946,1.55299 -0.0914,2.2838 -1.09622,2.74058 -1.0049,0.45674 0.18257,3.92814 2.74055,6.02925 2.55789,2.10112 1.0049,2.10112 1.09624,2.55787 0.0914,0.45674 3.01461,0 3.01461,1.00487 0,1.00487 0.82219,4.0195 -0.274,4.84169 -1.09624,0.82215 -2.10111,0.18258 -2.19246,1.09622 -0.0914,0.91352 -0.73083,2.2838 -1.27893,2.2838 -0.54812,0 0.48578,1.24087 -0.18257,1.9184 -0.55973,0.56732 -1.70815,0.1044 -1.82706,0.63951 -0.3654,1.64434 0,2.92328 -0.82218,3.19734 -0.82216,0.274 -2.92327,0.63937 -3.56273,1.27893 -0.51672,0.51679 -1.82706,1.91839 -4.11086,1.55299 -2.28381,-0.36541 -4.11085,0 -4.84167,0.3654 -0.73084,0.36541 -4.38492,0.91353 -4.38492,0.18286 0,-0.73084 -1.18758,-0.82218 -2.19245,0.0914 -1.0049,0.91354 -1.0049,1.64434 -1.82705,1.553 -0.82219,-0.0914 -0.91353,1.00487 -1.553,1.55299 -0.63946,0.54812 -2.46651,1.27893 -3.6541,0.73081 -1.18759,-0.54813 0.3654,2.19246 -0.18258,2.46652 -0.54812,0.27401 -1.91843,-0.82218 -2.55789,-0.63947 -0.63947,0.18259 -1.09622,0.73081 -1.82703,1.00487 -0.73083,0.27401 -1.91843,0.18285 -1.7357,-2.83192 -0.45662,-1.91837 -3.92814,-6.48603 -5.20707,-6.39466 -1.27896,0.0914 -7.49093,0.54812 -8.4958,0.0914 -0.36541,-1.46176 5.93791,-6.57738 7.3082,-8.31308 1.29206,-1.63661 0.63945,-5.02436 0.63945,-5.02436 z"
       id="path1249"
       sodipodi:nodetypes="cssssssssssssssssssssssssssscscscscc"
       inkscape:label="Cienega" /><path
       style="fill:#d94426;fill-opacity:0.535714;stroke-width:0.730819;stroke-linejoin:round"
       d="m 194.41333,153.53338 c 0,0 -2.10111,-2.1011 -4.38491,-1.18758 -2.2838,0.91353 -4.56761,2.2838 -8.40444,1.9184 -3.83679,-0.36541 -7.39952,0.63946 -5.84653,2.74058 1.55299,2.10111 2.2838,2.55786 2.00974,4.2022 -0.27401,1.64436 -1.46165,4.65898 -2.19245,4.65898 -0.73081,0 -2.00974,-0.91353 -2.83193,-0.45676 -0.82218,0.45676 -0.91353,2.00975 -4.47626,2.00975 -3.56276,0 -10.50554,0.27401 -11.14501,-0.18258 -0.63946,-0.45678 -1.55298,-0.91353 -1.55298,-2.00977 0,-1.09622 -1.18757,-1.27893 -1.55297,-1.82705 -0.36541,-0.5481 0.45661,-2.46652 -0.36541,-3.10599 -0.43264,-0.33654 -0.82218,-0.73081 -1.55302,-1.4e-4 -0.73081,0.73084 -3.28867,1.91843 -3.28867,1.37031 0,-0.54812 -1.55299,-4.84169 1.18758,-4.11086 1.62757,0.43402 4.34777,-6.32712 4.99665,-8.93592 0.71515,-2.87531 -1.7531,-4.41624 -2.15364,-2.83193 -0.54515,2.15611 -0.79435,2.36264 -1.87597,1.77908 -2.43881,-1.3158 -1.03719,-3.25638 -1.76804,-4.35263 -0.7308,-1.09621 -2.36958,-1.77352 -3.12717,-1.55392 -1.00039,0.28997 -2.19245,-1.27893 -1.18758,-5.66385 1.00487,-4.38492 5.15818,-6.00252 4.97547,-10.02203 -0.18286,-4.01951 8.05844,-13.68047 9.91499,-13.36421 2.96302,0.50477 7.00341,4.23728 7.68469,5.31966 0.58135,0.92367 8.11927,-1.2088 9.7636,-4.13206 1.64436,-2.92327 2.64923,3.19732 2.00977,5.75518 -0.63947,2.55789 -4.29357,7.1255 3.19733,7.85631 7.4909,0.73084 10.50554,-1.9184 10.32282,0.91353 -0.18257,2.83192 -2.64924,9.4093 -2.46651,11.23635 0.18257,1.82706 -0.82219,2.28383 2.74057,3.01464 3.56274,0.73081 1.37028,10.96229 1.37028,10.96229 z"
       id="path1251"
       sodipodi:nodetypes="cssssssscssscsssssssscsssssccscc" /></g></svg>
