<?xml version="1.0" encoding="UTF-8" standalone="no"?>
<!-- Created with Inkscape (http://www.inkscape.org/) -->

<svg
   width="1000mm"
   height="1000mm"
   viewBox="0 0 1000 1000"
   version="1.1"
   id="svg474"
   inkscape:version="1.2.1 (9c6d41e410, 2022-07-14)"
   sodipodi:docname="DivJal.svg"
   xmlns:inkscape="http://www.inkscape.org/namespaces/inkscape"
   xmlns:sodipodi="http://sodipodi.sourceforge.net/DTD/sodipodi-0.dtd"
   xmlns="http://www.w3.org/2000/svg"
   xmlns:svg="http://www.w3.org/2000/svg">
  <sodipodi:namedview
     id="namedview476"
     pagecolor="#ffffff"
     bordercolor="#000000"
     borderopacity="0.25"
     inkscape:showpageshadow="2"
     inkscape:pageopacity="0.0"
     inkscape:pagecheckerboard="0"
     inkscape:deskcolor="#d1d1d1"
     inkscape:document-units="mm"
     showgrid="false"
     inkscape:zoom="0.11514275"
     inkscape:cx="1419.9765"
     inkscape:cy="2127.7936"
     inkscape:window-width="1366"
     inkscape:window-height="697"
     inkscape:window-x="-8"
     inkscape:window-y="-8"
     inkscape:window-maximized="1"
     inkscape:current-layer="layer1" />
  <defs
     id="defs471" />
  <g
     inkscape:label="Capa 1"
     inkscape:groupmode="layer"
     id="layer1">
    <path
       style="display:inline;fill:#d94426;fill-opacity:0.535714;stroke-width:3.28869;stroke-linejoin:round"
       d="m 63.948301,157.56503 c 33.024609,71.40458 8.07341,95.58444 16.95857,106.21429 41.232799,49.32946 46.285429,85.19492 52.660859,92.82588 1.31045,1.56852 34.26913,18.3664 42.09098,20.25866 5.35533,-12.49583 24.85081,14.5512 20.38803,19.01394 -4.46275,4.46274 -23.09941,39.08377 -8.03301,32.89501 28.99086,-11.90822 24.09905,-31.10985 24.09905,-46.28341 0,-15.17338 13.38836,-28.56183 19.6363,-32.13208 6.24784,-3.57017 29.45435,-3.57017 30.34692,-10.71063 0.89258,-7.14052 -16.06604,-4.46279 -11.60325,-15.17348 4.46278,-10.71062 8.03304,-70.51199 8.03304,-70.51199 0,0 -12.73811,1.77758 -20.52887,-6.2479 C 192.2571,200.59525 197.83184,177.20118 195.1542,136.14357 192.47652,95.085978 218.36071,27.251558 218.36071,27.251558 c 0,0 -37.0405,-24.7903698 -62.96051,-13.51787 -7.59437,3.30277 -13.79943,-8.7960198 -20.04733,-9.6885898 -6.24788,-0.89245 -7.41078,11.6735798 -10.08845,18.8140498 -2.67768,7.14052 -17.58083,12.42549 -17.58083,12.42549 0,0 21.27776,2.3783 0.89257,42.84276 -3.3448,6.6393 3.53633,13.09928 5.84919,19.127934 2.30139,5.998818 5.17833,5.982528 9.53546,17.877958 7.07761,19.32297 10.6403,32.00262 -18.81409,23.96958 -29.454409,-8.03296 -19.353529,-20.08045 -31.098749,-13.88103 -11.11645,5.86747 2.45529,20.59912 -0.1998,25.48424 -6.05813,11.1456 -14.71447,-13.44754 -17.93274,-10.99221 -4.31643,3.29315 8.033,17.85116 8.033,17.85116 z"
       id="path592"
       sodipodi:nodetypes="csscssssssssscssscssssssscc"
       inkscape:label="Santiago" />
    <path
       style="fill:#d94426;fill-opacity:0.535714;stroke-width:3.28869;stroke-linejoin:round"
       d="m 191.73484,431.17252 c 0,0 31.0828,-7.7211 24.03392,-49.11017 -2.31683,-13.60382 13.31293,-26.73825 21.13691,-30.59061 9.93646,-4.89258 17.3349,-2.60167 20.21252,-4.04037 5.75519,-2.87757 8.80304,-4.42224 8.80304,-8.533 0,-4.11083 -11.36935,-8.19256 -12.96378,-11.09929 -1.18616,-2.16252 11.18385,-28.91112 8.3421,-73.14414 0,0 4.30608,-2.25176 -12.34468,-4.13164 -15.77543,-1.78091 -42.58576,-50.17069 -44.86681,-60.43812 -1.75073,-7.88027 -8.13052,-28.00121 -4.76276,-83.4504 0.72243,-11.894502 17.26249,-70.371792 21.20621,-76.922992 2.48716,-4.13163 23.19112,11.14917 23.60219,15.67108 0.4113,4.52206 9.02323,25.92771 4.09019,30.44962 -4.93304,4.52196 -20.12256,10.65911 -22.58907,20.93621 -2.46653,10.277112 4.11085,37.819952 18.08781,23.431822 13.97692,-14.38799 29.91601,-25.072662 40.81788,-23.290742 6.76643,1.106232 17.89688,5.223682 19.54118,11.389952 1.64434,6.16635 7.56985,34.63097 12.09181,35.45308 7.42875,3.72839 24.46291,14.48978 28.11555,14.91102 5.90482,0.68112 10.83785,-3.932 12.4822,-5.16528 1.64435,-1.23305 20.21617,-5.64493 23.0208,-2.87761 3.28509,3.24139 6.65707,17.25736 6.57738,21.78752 -0.15615,8.87364 -16.44341,66.59601 -17.26561,69.47358 -0.82224,2.87762 52.86656,42.95567 69.88465,64.95162 4.6532,6.0142 -18.49887,51.38566 -22.19874,56.31879 -3.69973,4.93294 55.96554,43.11981 58.78544,46.86377 3.6996,4.91234 0.8253,16.69964 -1.6444,18.90986 -8.9819,8.03943 -21.7876,15.62144 -30.8315,19.32112 -9.0439,3.6998 -19.32104,17.67658 -19.32104,23.84298 0,6.16626 -1.64441,29.18715 -2.46648,33.70905 -0.82225,4.52193 -14.14723,16.13738 -13.9769,18.90991 0.5813,9.46355 -1.89685,42.45557 2.2756,49.21007 4.75375,7.6954 13.75675,34.2405 15.8122,36.7069 2.05554,2.4665 18.08782,12.3326 16.85452,13.977 -1.2333,1.6444 -3.0507,1.7007 -20.55429,-2.8777 -9.58745,-2.5076 -20.55429,-2.8776 -24.25406,-2.4665 -3.69977,0.4113 -35.35341,-19.7321 -34.53121,-27.1316 0.82219,-7.3995 2.05542,-12.3327 -8.22173,-20.5543 -10.27715,-8.2217 -14.75964,-17.6286 -18.0878,-44.80835 -2.4665,-20.14318 -18.77243,-25.3086 -32.06467,-33.4477 -3.15526,-1.93203 -16.75953,-2.6649 -19.32107,-0.26235 -5.0328,4.72117 -23.02084,23.43196 -31.24256,23.43196 -8.22168,0 -6.84738,-9.16426 -10.95823,-10.80861 -4.11088,-1.6443 -28.10691,5.56192 -32.20578,5.87553 -7.59902,0.58167 -14.76131,-0.0747 -22.04902,1.64434 -3.44232,0.8104 -14.94874,15.21026 -17.82631,16.03242 -7.23784,1.40285 -7.40169,2.27614 -6.36579,-21.78761 0.45243,-10.50931 14.99859,-5.34421 14.99859,-5.34421 0,0 14.388,-14.38793 9.45496,-33.29784 -4.93304,-18.91004 1.78542,0.1701 -1.0922,-35.59425 z"
       id="path1202"
       sodipodi:nodetypes="csssssssssssssssscssssssssssssssssssssssssssscscscc"
       inkscape:label="Tepic" />
    <path
       style="fill:#d94426;fill-opacity:0.535714;stroke-width:3.28869;stroke-linejoin:round"
       d="m 221.07309,514.41711 c 0,0 16.85953,-6.9764 19.47564,-4.36019 2.61612,2.61607 8.13912,5.23224 4.36023,6.9763 -3.77887,1.74411 -11.62723,-3.77888 -16.85952,-0.87255 -5.23229,2.90687 -9.30182,6.68576 -4.94159,12.79001 4.36024,6.1043 15.40612,13.37141 15.98747,17.73153 0.58131,4.36041 7.26706,15.9875 -7.84841,22.9639 -15.11545,6.9763 -23.25452,6.1044 -23.25452,15.1155 0,9.0112 4.65089,25.58 -3.19752,35.1725 -7.84841,9.5924 -9.17757,5.3466 -11.04588,12.7899 -3.81245,15.1887 8.42976,21.9835 8.72046,30.9947 0.2907,9.0111 0.2907,10.8636 2.32542,14.061 2.03482,3.1974 7.00615,10.4069 -9.88313,18.6037 -10.41457,5.0544 -12.0263,9.8833 -30.04858,1.1634 -18.02223,-8.7206 -24.73884,-10.3057 -37.09891,2.9068 -8.42981,9.0111 -1.11011,-7.8084 -23.83592,-24.4175 -30.808399,-22.5159 1.16019,-42.5085 16.27821,-43.0207 17.15019,-0.5805 31.68429,-2.9067 44.76499,-6.395 9.92615,-2.647 29.94021,-21.4022 25.87064,-29.2505 -4.06954,-7.8486 0.8721,-13.7704 -11.04588,-15.8051 -11.91794,-2.0349 -5.81369,-12.4994 -9.01116,-15.1155 -3.19748,-2.6163 -7.39755,-12.3552 -20.6384,0.2906 -3.12495,2.9847 -13.37135,-4.0694 -17.73159,-6.395 -6.39499,0.8726 2.32547,-23.83586 6.6857,-23.83586 4.36023,0 11.04589,-2.90681 8.72041,-8.42973 -2.32542,-5.52302 12.79,-14.53423 13.95275,-12.49946 1.1628,2.03485 -1.94345,12.13661 1.1628,14.82489 3.29698,2.85329 7.41309,6.61548 21.21976,-9.59247 6.68566,-7.84849 36.91657,-6.39509 36.91657,-6.39509 z"
       id="path1204"
       sodipodi:nodetypes="csscsssssssssssssssssscssssscc"
       inkscape:label="Vallarta" />
    <path
       style="fill:#d94426;fill-opacity:0.535714;stroke-width:3.28869;stroke-linejoin:round"
       d="m 169.33171,706.26691 c 0,0 -22.09177,-14.534 -27.32405,-11.9179 -5.23228,2.6163 -11.62729,12.4994 -15.69681,12.4994 -4.06953,0 -4.94163,20.3477 9.30182,38.37 14.2434,18.0223 58.71767,88.3671 77.90267,95.0529 11.30427,3.9393 19.93114,12.1879 20.9291,-3.7789 0.58131,-9.3018 7.5577,-18.3128 12.49929,-17.1501 4.94159,1.162 16.27822,-2.6161 20.05705,-20.3479 3.77882,-17.7315 14.53405,-31.9749 20.05704,-34.8817 5.52294,-2.9069 9.01112,-11.9181 6.395,-15.9874 -2.61612,-4.0697 11.04588,-2.3254 17.15022,-4.9416 6.1043,-2.6163 22.82608,-15.2495 32.55634,-8.7206 12.51117,8.3951 13.95275,16.5689 16.85958,25.58 2.90677,9.0112 11.33653,11.0459 13.662,15.6969 2.32546,4.6509 -1.45342,18.6036 0.58135,18.0223 2.03472,-0.5818 19.18498,4.3602 22.96386,23.2544 3.7788,18.8944 31.68427,27.0335 43.3116,20.9292 11.6272,-6.1044 8.9659,-15.2407 25.2893,9.3016 15.051,22.6296 16.5542,-15.6615 22.6586,-23.8005 6.1043,-8.1391 22.392,-12.42 23.6948,-14.0877 1.4181,-1.815 -13.2157,-3.8849 -14.0525,-8.5916 -0.4379,-2.4619 -7.0115,-10.4937 11.8826,-21.5396 18.8945,-11.0458 1.5207,-13.8067 -1.0067,-18.0574 -2.6363,-4.4332 -4.5158,-24.9634 2.1698,-25.5448 6.6857,-0.5817 9.3018,-1.1634 7.5576,-9.8831 -1.7441,-8.7206 12.7901,-5.2324 13.9529,-9.8834 1.1622,-4.6508 -0.8726,-11.0459 -9.0112,-12.4993 -8.1391,-1.4534 -4.9417,-15.6967 -7.267,-19.7663 -2.3255,-4.0695 2.0347,-16.5688 9.8831,-15.4059 7.8485,1.162 11.8543,-1.9627 0,-12.4996 -5.2323,-4.6508 -11.6272,6.1044 -22.6732,8.1392 -11.0458,2.0348 -15.9145,10.1397 -36.6259,-13.0808 -14.9305,-16.7391 -24.2616,-19.4609 -30.0753,-20.6237 -5.8135,-1.1622 -19.63128,-6.991 -38.52556,-6.1189 -18.89429,0.8725 -37.78862,-24.708 -40.98611,-29.9403 -3.19752,-5.2321 8.42973,-5.8137 -10.17386,-21.2197 -18.6036,-15.4061 -10.17387,-45.45467 -19.76635,-57.08187 -9.59251,-11.62719 -22.67316,-21.40227 -36.91657,-18.49545 -14.24341,2.90677 -21.51046,24.12675 -36.62591,24.12675 -15.11546,0 -25.87064,-2.61593 -27.3241,2.32532 -1.27336,4.32928 19.18503,20.05702 18.60363,29.35895 -0.3447,5.5122 -1.16266,18.8942 -20.34769,23.8359 -20.14597,5.1892 -9.88318,20.6384 -11.33659,23.2544 -1.45341,2.6163 10.75213,13.635 -8.42977,26.7428 -17.44092,11.9179 -1.4534,24.4174 -0.58135,29.3589 0.8721,4.9415 2.03477,14.5341 4.36023,19.185 2.32547,4.6509 6.10435,13.9527 -0.87205,19.1849 -6.97635,5.2324 -20.63841,15.1156 -38.66064,11.6272 z"
       id="path1206"
       sodipodi:nodetypes="csssssssssssssssssssssssscsscsssccssssssssssssssc"
       inkscape:label="Costa" />
    <path
       style="fill:#d94426;fill-opacity:0.535714;stroke-width:3.28869;stroke-linejoin:round"
       d="m 438.70247,455.52914 c 0,0 67.1363,4.25938 73.6337,0.75074 4.0553,-2.18975 12.79,-7.55776 12.79,-17.44084 0,-9.88322 24.4172,4.06949 24.4172,4.06949 0,0 13.3713,8.13906 8.1392,17.44097 -5.2324,9.30173 -5.9131,17.25088 0.5816,27.32401 2.4192,3.75219 -5.8136,37.7887 -6.395,43.60223 -0.5816,5.81362 -1.7441,9.88325 2.3255,13.95268 4.0695,4.06963 9.8574,3.10587 7.6282,18.15729 -1.5384,10.388 9.8126,20.8999 9.8126,24.3881 0,3.4883 -4.0694,5.7077 -6.3949,8.6145 -2.3255,2.9068 2.9069,2.9068 3.4881,6.3952 0.5819,3.4882 1.7442,6.3949 -6.9762,12.7901 -8.7205,6.3948 -22.9774,11.144 -29.0682,6.3948 -3.7362,-2.9132 -5.9487,-6.4594 -5.9487,1.0988 0,7.5578 0.8887,18.6262 -2.9068,23.2546 -6.26,7.6344 -22.4639,18.3197 -35.3283,16.9241 -10.4217,-1.1312 -33.7944,-31.5299 -34.917,-31.1821 -2.6067,-2.7449 -21.6454,-23.1548 -26.06152,-25.8561 -2.1893,-8.4685 -18.19258,-34.4355 -16.44845,-46.0626 1.74404,-11.62738 -3.31796,-31.32924 0.75166,-35.98013 4.06955,-4.65091 14.5693,-16.34267 13.98794,-30.29537 -0.58137,-13.9527 -2.02012,-25.55075 13.09527,-38.34074 z"
       id="path1217"
       sodipodi:nodetypes="csscsssssssssssssccssscc"
       inkscape:label="Minas" />
    <path
       style="fill:#d94426;fill-opacity:0.535714;stroke-width:3.28869;stroke-linejoin:round"
       d="m 605.47827,454.82462 c 0,0 -36.9977,-11.92158 -39.4642,-9.04397 -2.4665,2.87757 -1.033,7.10618 -1.6443,8.63276 -1.2331,3.08317 -0.8229,4.52205 -2.8777,5.34416 -2.0555,0.82161 -7.3996,15.62126 -4.933,19.32107 2.4665,3.69972 5.7552,9.66047 4.9331,19.11551 -0.8216,9.45491 -6.9886,40.28638 -6.5774,42.75295 0.4112,2.46658 11.0993,5.75512 11.0993,12.33261 0,6.5773 -2.4665,12.5381 2.0551,20.3487 4.522,7.8107 4.5178,16.033 25.0763,16.0323 11.0992,-3e-4 9.6606,5.7554 21.3765,-1.6444 7.519,-4.7488 9.4549,-3.4941 15.2102,-4.3162 5.0336,-0.7197 15.8979,-9.9064 11.3049,-26.3096 -4.3164,-15.41568 -3.0832,-24.45963 -3.0832,-24.45963 0,0 -12.3325,2.67214 -14.3882,-9.86608 -2.483,-15.14628 -0.4112,-36.58663 -0.4112,-36.58663 0,0 -20.5544,-13.97692 -17.6768,-31.65355 z"
       id="path1219"
       sodipodi:nodetypes="csscscssssssscsccc"
       inkscape:label="Juarez" />
    <path
       style="fill:#d94426;fill-opacity:0.535714;stroke-width:3.28869;stroke-linejoin:round"
       d="m 570.94707,678.86641 c 0,0 -28.7759,0.4114 -30.4204,-0.4112 -1.6444,-0.8217 -12.3325,-10.6882 -18.0879,-6.1662 -5.7552,4.5218 -2.672,14.3879 -1.8497,16.0322 0.8216,1.6444 -2.4661,10.4828 6.3719,11.9216 5.0185,0.8166 10.277,5.7555 9.0437,13.5659 -1.8361,11.6276 -9.3756,8.5648 -12.9491,10.0714 -3.4108,1.4381 0.7793,7.6525 -1.0279,11.7161 -1.6443,3.6999 -7.7062,2.2498 -10.0716,4.7277 -4.0727,4.2669 -3.2887,10.6883 0.8216,18.4988 4.1109,7.8106 9.6608,7.194 9.6608,11.3049 0,4.1108 -9.0442,14.388 -17.6769,18.0878 -6.0455,2.5909 -5.3263,6.9074 -2.3246,10.4732 3.0016,3.5659 8.2854,6.3814 11.3686,5.9703 6.1663,-0.8216 9.0438,6.9885 -4.9331,11.0994 -19.8057,5.8252 -18.9099,13.5658 -18.9099,13.5658 0,0 -9.0439,27.5426 -11.5105,30.8314 -2.4665,3.2887 4.9331,18.91 36.1755,0 31.2426,-18.9099 31.1466,-22.6572 62.8961,-17.2657 21.7877,3.6999 16.0325,11.0994 22.1987,15.6213 6.1664,4.522 25.0763,47.275 29.1871,47.6861 4.1109,0.4112 6.1663,-9.8661 16.4435,-9.0439 10.2771,0.8217 11.6022,-17.6453 18.91,1.233 4.933,12.7438 0,9.455 -0.8216,15.6214 -0.8217,6.1662 -0.8217,16.4433 1.233,20.5542 2.0555,4.1109 4.933,11.0993 -5.7552,23.432 -10.6881,12.3326 11.9215,8.6327 11.9215,11.0994 0,2.4664 11.9215,2.0552 12.3327,18.4987 0.4112,16.44339 18.9099,9.86613 22.1986,0 3.2886,-9.866 8.2217,-17.6767 12.7436,-17.6767 4.522,0 6.7851,-5.1626 -1.6444,-18.0878 -6.1663,-9.455 2.2643,-7.1682 -12.3325,-20.1432 -7.3995,-6.5774 4.1952,-8.1972 -11.9215,-18.4987 -16.5149,-10.5563 4.1243,-20.6265 7.3997,-24.6652 3.2572,-4.0167 -3.2889,-11.9216 0.4113,-14.7992 3.6998,-2.8777 3.6997,-7.3995 3.6997,-9.4549 0,-2.0556 12.7968,-7.396 13.9769,-25.4874 1.233,-18.91 0,-44.3973 -2.8776,-50.1525 -0.8229,-9.455 -8.6328,-9.455 -12.3326,-8.6328 -3.6997,0.8215 -12.2626,-7.9793 -20.9652,-11.9215 -8.6208,-3.9052 -6.1665,-13.9769 -1.6445,-15.2102 4.5219,-1.233 -36.5867,-35.3535 -56.3188,-39.4643 -19.7321,-4.1109 -26.7242,-5.576 -35.7645,-11.5103 -8.0536,-5.2867 -11.5104,-19.3211 -16.8545,-23.0209 z"
       id="path1221"
       sodipodi:nodetypes="ccscssssssssscscssssscsscsssssssssssscssssscc"
       inkscape:label="Zapotlan" />
    <path
       style="fill:#d94426;fill-opacity:0.535714;stroke-width:3.28869;stroke-linejoin:round"
       d="m 629.33547,588.10491 c 0,0 0.4366,4.5055 3.6336,6.6857 -2.1801,0.7271 -10.1739,-0.5818 -11.3366,2.3254 -1.1634,2.9068 -6.5403,8.7204 -7.7031,8.2844 -1.1634,-0.4361 -8.495,-7.966 -0.5816,-13.8074 6.1043,-4.5054 9.1564,-4.3602 11.7724,-4.0695 2.6163,0.2908 4.2149,0.5819 4.2149,0.5819 z"
       id="path1223"
       sodipodi:nodetypes="cccssscc"
       inkscape:label="Divisional" />
    <path
       style="fill:#d94426;fill-opacity:0.535714;stroke-width:3.28869;stroke-linejoin:round"
       d="m 632.38757,586.07021 c 0,0 -2.7414,3.4299 3.3431,9.1564 2.4707,2.3255 11.9177,-3.1975 16.4234,-2.7616 4.5055,0.4366 23.5375,3.0996 25.1439,1.5989 3.5372,-3.3046 0.4364,-6.6857 -8.4296,-13.226 -8.866,-6.5403 -4.8781,-15.337 -17.4412,-14.3887 -7.7028,0.5817 -6.5401,7.1217 -8.2843,9.4471 -1.744,2.3255 -2.0348,8.8658 -10.7553,10.1739 z"
       id="path1225"
       sodipodi:nodetypes="cssssssc"
       inkscape:label="Reforma" />
    <path
       style="fill:#d94426;fill-opacity:0.535714;stroke-width:3.28869;stroke-linejoin:round"
       d="m 664.07197,473.431 c 0,0 -15.9875,-8.72046 -17.1502,-2.32551 -1.1634,6.39495 -2.579,8.22587 -10.4999,10.01822 -9.301,2.1046 -8.6851,5.98986 -8.6851,5.98986 0,0 -4.2252,35.75389 -0.1566,39.2421 4.0696,3.48812 6.9059,1.31874 11.5568,3.93457 4.6509,2.61623 1.0987,13.77642 5.1677,22.49687 1.6031,13.4479 2.1546,10.6137 20.107,1.1771 15.3502,-8.06864 15.3562,-8.73512 38.3201,-6.40967 3.0261,0.68113 0.5842,-17.50146 0.5842,-17.50146 0,0 -15.6212,0.82274 -18.0877,-0.82158 -2.4666,-1.64453 -19.3211,-16.03246 -19.3211,-21.78764 0,-5.75519 7.194,-21.78765 8.8384,-31.85916 -2.8776,-1.64435 -10.6742,-2.15347 -10.6742,-2.15347 z"
       id="path1227"
       sodipodi:nodetypes="ccsccscsccssccc"
       inkscape:label="Hidalgo" />
    <path
       style="fill:#d94426;fill-opacity:0.535714;stroke-width:3.28869;stroke-linejoin:round"
       d="m 587.24087,593.43121 c 0,0 -17.1159,-1.9206 -17.5271,3.4235 1.4384,4.1109 4.1357,7.1765 3.9055,10.4828 -0.4114,5.9048 -17.1806,19.5826 -29.1021,19.9936 -11.9214,0.4113 -11.6308,-2.9482 -12.8641,-0.8924 -1.233,2.0553 -0.1705,8.0307 -0.1705,12.9638 0,4.933 -1.233,9.0438 -2.8777,10.6881 -1.6442,1.6445 7.2998,8.5124 8.5331,13.0344 1.233,4.5221 -1.863,9.1597 4.933,10.788 7.2793,1.7442 13.4979,-0.163 23.9428,0.7023 10.2772,0.8514 15.2309,12.8434 16.4641,15.7211 1.233,2.8776 12.1489,15.3693 26.9992,15.4303 17.1245,0.075 55.4028,19.7588 75.5461,44.0129 20.1431,24.2541 24.4596,3.4943 24.4596,0.6165 0,-2.8777 -2.4665,-7.8106 -4.1109,-11.9215 -1.6444,-4.1108 0,-9.455 3.2887,-11.9215 3.2888,-2.4663 -1.233,-11.0992 -4.1108,-16.0323 -2.8776,-4.933 5.7551,-18.9099 14.388,-8.2218 6.1662,4.9331 3.6998,-8.6327 6.1662,-9.8659 2.4665,-1.2331 23.0209,-10.6883 30.4204,12.7436 6.1664,5.3441 2.8782,-9.8661 8.6328,-9.8661 5.7552,0 13.5659,0 13.5659,-2.8775 0,-2.8778 11.5104,0 12.7437,-2.4665 1.233,-2.4666 -2.0555,-8.2218 -12.3326,-7.3997 -6.9885,-3.699 -2.1489,-8.6504 -4.9331,-16.4433 -2.505,-7.0112 -9.0485,-19.9704 -17.6767,-23.8431 -7.1356,-3.2027 -43.83,-0.3824 -43.9862,-2.8775 -0.4113,-6.5774 1.7175,-10.6426 23.0209,-30.0093 18.0878,-16.4435 14.3048,-18.0141 13.5658,-24.6651 -0.8228,-7.3997 -0.4113,-8.2218 -0.4113,-8.2218 0,0 -7.8105,-5.3448 -11.5104,-10.2772 -0.4103,-6.1662 -0.5705,-1.6301 -6.5773,-8.8384 -2.0553,-2.4665 -1.85,-14.18233 -1.85,-14.18233 0,0 -8.8382,5.96068 -14.1824,6.78284 -5.344,0.82168 -11.0067,2.09689 -15.2101,0.6166 -4.4968,-1.58372 -8.2218,0.82269 -12.3326,-0.41132 -4.7575,-1.42775 -25.0762,8.42721 -25.4873,10.89381 -0.4113,2.4664 5.7551,11.7159 9.455,15.8269 3.6997,4.1108 14.6763,13.3053 11.5103,17.4711 -3.9052,5.1385 -17.6767,2.261 -25.2817,2.0554 -6.4323,-0.1742 -27.3373,2.6715 -31.0372,4.3162 -3.6995,1.6446 -6.5772,8.222 -11.9213,8.633 -5.3442,0.4114 -1.0491,0.4114 -5.7758,-5.3442 -2.4027,-11.8745 -8.5516,-11.8584 -18.5283,-10.9083 z"
       id="path1229"
       sodipodi:nodetypes="ccssssssssssssssscccssscsssssccsccssssssssccc"
       inkscape:label="Chapala" />
    <path
       style="fill:#d94426;fill-opacity:0.535714;stroke-width:3.28869;stroke-linejoin:round"
       d="m 694.47837,460.78537 c 0,0 -1.028,15.4157 -5.7553,15.82673 -4.7274,0.4113 -10.277,0 -10.4826,1.23304 -0.2047,1.233 -3.6994,10.48271 -4.3159,14.18247 -0.6165,3.69972 -4.522,9.45505 -3.9053,14.38804 0.6165,4.93308 3.9054,8.22159 9.455,12.53808 5.5496,4.31627 1.645,8.83834 20.3488,7.1939 18.7044,-1.64435 19.1154,-5.7552 25.2817,-18.49885 6.1662,-12.74364 11.0994,-21.78747 8.0162,-28.57037 -3.0831,-6.7829 -3.6998,-0.61654 -4.3164,0.82157 -0.6166,1.43878 -0.6166,10.89378 -11.7159,5.54962 -11.0993,-5.34411 -8.0163,-17.67677 -9.0439,-19.9377 -1.0279,-2.26098 -12.5381,-9.04383 -13.566,-4.72739 z"
       id="path1247"
       sodipodi:nodetypes="cscssssssssssc"
       inkscape:label="Libertad" />
    <path
       style="fill:#d94426;fill-opacity:0.535714;stroke-width:3.28869;stroke-linejoin:round"
       d="m 753.05807,576.50611 c 0,0 56.3189,0.4114 59.1965,-2.8779 2.8776,-3.2886 1.8626,-8.9712 11.5103,-5.7552 12.3327,4.1109 19.5666,-17.76888 19.3213,-27.13166 -0.1742,-6.6263 -4.9332,-12.74361 -10.2773,-18.08781 -5.3442,-5.34415 15.6212,-8.22172 23.4317,-6.57742 7.8109,1.64435 36.1757,-5.34403 41.9308,-8.22163 5.7553,-2.87758 11.9217,4.93298 16.0324,6.98835 4.1109,2.05547 10.6883,-7.81056 13.566,-0.8216 2.8775,6.98845 -0.4114,10.27713 -4.933,12.33263 -4.5221,2.05528 0.8216,17.6766 12.3325,27.13154 11.5105,9.4551 4.522,9.4551 4.933,11.5105 0.4114,2.0553 13.5657,0 13.5657,4.5219 0,4.5219 3.6999,18.0878 -1.233,21.7876 -4.933,3.6997 -9.455,0.8216 -9.8661,4.933 -0.4112,4.1108 -3.2886,10.2771 -5.7551,10.2771 -2.4666,0 2.186,5.584 -0.8216,8.6329 -2.5187,2.5528 -7.6867,0.4698 -8.2217,2.8777 -1.6444,7.3996 0,13.1547 -3.6998,14.388 -3.6997,1.233 -13.1548,2.8772 -16.0324,5.7552 -2.3252,2.3256 -8.2217,8.6328 -18.4987,6.9884 -10.2773,-1.6443 -18.499,0 -21.7877,1.6444 -3.2887,1.6443 -19.7321,4.1109 -19.7321,0.8229 0,-3.2888 -5.3441,-3.6999 -9.866,0.4113 -4.522,4.1109 -4.522,7.3994 -8.2217,6.9885 -3.6999,-0.4113 -4.111,4.5219 -6.9885,6.9885 -2.8776,2.4666 -11.0994,5.7551 -16.4435,3.2885 -5.3442,-2.4666 1.6442,9.8661 -0.8217,11.0994 -2.4664,1.2331 -8.6328,-3.6998 -11.5105,-2.8776 -2.8775,0.8216 -4.9329,3.2886 -8.2216,4.5219 -3.2887,1.233 -8.6329,0.8229 -7.8106,-12.7437 -2.0548,-8.6326 -17.6766,-29.1871 -23.4318,-28.7759 -5.7553,0.4113 -33.7092,2.4665 -38.2312,0.4113 -1.6443,-6.5779 26.7206,-29.5983 32.887,-37.4089 5.8143,-7.3647 2.8775,-22.6096 2.8775,-22.6096 z"
       id="path1249"
       sodipodi:nodetypes="cssssssssssssssssssssssssssscscscscc"
       inkscape:label="Cienega" />
    <path
       style="fill:#d94426;fill-opacity:0.535714;stroke-width:3.28869;stroke-linejoin:round"
       d="m 913.79277,509.91009 c 0,0 -9.455,-9.45496 -19.7322,-5.34412 -10.277,4.11089 -20.5541,10.2771 -37.82,8.6328 -17.2654,-1.64434 -33.2978,2.87757 -26.3093,12.3326 6.9884,9.45505 10.2772,11.5104 9.0439,18.90994 -1.2331,7.3996 -6.5775,20.9654 -9.8661,20.9654 -3.2887,0 -9.0438,-4.1109 -12.7436,-2.0554 -3.6999,2.0554 -4.1109,9.0438 -20.1433,9.0438 -16.0323,0 -47.2749,1.2331 -50.1525,-0.8216 -2.8776,-2.0554 -6.9884,-4.1109 -6.9884,-9.0439 0,-4.9331 -5.3441,-5.7551 -6.9884,-8.2217 -1.6444,-2.4665 2.0547,-11.09941 -1.6444,-13.97702 -1.9468,-1.51439 -3.6998,-3.28864 -6.9885,-5.7e-4 -3.2888,3.28873 -14.7991,8.63291 -14.7991,6.16634 0,-2.46648 -6.9884,-21.7876 5.3441,-18.49892 7.3242,1.95309 19.5649,-28.472 22.485,-40.2116 3.2181,-12.9389 -7.8889,-19.87309 -9.6914,-12.74368 -2.4532,9.70249 -3.5745,10.63187 -8.4418,8.00585 -10.9747,-5.9211 -4.6675,-14.65371 -7.9562,-19.58684 -3.2886,-4.93295 -10.6631,-7.98084 -14.0724,-6.99264 -4.5016,1.30487 -9.8659,-5.75518 -5.344,-25.48733 4.5219,-19.73214 23.2118,-27.01134 22.3897,-45.09915 -0.823,-18.0878 36.2629,-61.56214 44.6174,-60.13896 13.3336,2.27147 31.5153,19.06776 34.5811,23.93848 2.6161,4.1565 36.5367,-5.4396 43.9362,-18.59428 7.3996,-13.15473 11.9215,14.38795 9.0439,25.89831 -2.8776,11.51052 -19.321,32.06477 14.388,35.35341 33.7091,3.28878 47.2751,-8.6328 46.4527,4.11089 -0.8216,12.74365 -11.9215,42.34187 -11.0993,50.56359 0.8216,8.22177 -3.6998,10.27723 12.3326,13.56588 16.0324,3.28865 6.1663,49.33032 6.1663,49.33032 z"
       id="path1251"
       sodipodi:nodetypes="cssssssscssscsssssssscsssssccscc" />
  </g>
</svg>
